:SAMPLES-PER-SECOND 30
:FULLY-SPECIFIED
:DEGREES
148
root  34.78732372 36.49767177 -14.84810386 9.587744713 -7.896555901 4.703971863
lowerback  -6.853420258 -1.516990066 -0.9022242427
upperback  -4.0857687 -1.487980008 -4.236149788
thorax  -0.4713439941 -0.5775560141 -3.964430094
lowerneck  1.27918005 -19.59560013 -12.94620037
upperneck  7.64248991 -27.49270058 15.98149967
head  6.120154381 -13.23820019 4.645689964
lclavicle  0 -4.497500157e-015 -2.743230041e-014
lhumerus  -49.79349899 30.24780083 59.99010086
lradius  0.03244927898 -6.507048965e-006 29.86629486
lwrist  4.824992743e-007 -3.790274832e-007 -30.02750015
lhand  -0 -36.94309998 -10.68309975
lfingers  90 7.125020027 -90
lthumb  94.83800898 -25.51723726 101.1159128
rclavicle  0 -4.497500157e-015 -2.743230041e-014
rhumerus  -13.98250008 -35.96300125 6.389716625
rradius  -5.16745672e-007 2.214343908e-008 38.42689896
rwrist  -0.0001011603963 -0.001600692281 -165.5899963
rhand  -1.77228767e-031 4.99296999 -6.562530041
rfingers  -90 -7.125020027 -90
rthumb  -84.43170458 -9.404539094 -59.17832201
rfemur  -14.74208927 16.05473137 11.37595177
rtibia  -1.871829867 -2.522088528 22.30037308
rfoot  -0.02031636797 -23.89249611 -33.75733185
rtoes  3.999514057 19.61208186 -101.766843
lfemur  -9.264773369 -16.50973701 -21.83205414
ltibia  3.15848732 -2.101967812 15.00906086
lfoot  1.652267337 -21.76671028 38.68753815
ltoes  -8.641864051 -18.10592539 -116.0607756
149
root  34.78939026 36.49721521 -14.84802276 9.577074051 -7.892213821 4.715079784
lowerback  -6.863649845 -1.515140057 -0.8883855939
upperback  -4.082630157 -1.486230016 -4.238299847
thorax  -0.4575940073 -0.5761166215 -3.974699974
lowerneck  1.282950044 -19.59420013 -12.95040035
upperneck  7.604609966 -27.49200249 16.03070068
head  6.11522007 -13.23700047 4.661419868
lclavicle  0 -4.497500157e-015 -2.743230041e-014
lhumerus  -49.7779007 30.22050095 60.00120163
lradius  0.03043305874 -6.507048965e-006 29.87520218
lwrist  4.824992743e-007 -3.790274832e-007 -29.95249939
lhand  -4.418381259e-031 -36.94720078 -10.64820004
lfingers  90 7.125020027 -90
lthumb  94.83244991 -25.48285924 101.1170268
rclavicle  0 -4.497500157e-015 -2.743230041e-014
rhumerus  -13.97799873 -35.7859993 6.421896458
rradius  -5.16745672e-007 2.214343908e-008 38.20619965
rwrist  -0.0001011603963 -0.001600692281 -165.6179962
rhand  -1.773186655e-031 5.315100193 -6.676799774
rfingers  -90 -7.125020027 -90
rthumb  -84.41111477 -9.325634523 -58.87330211
rfemur  -14.75631714 16.06287575 11.36799526
rtibia  -1.886935949 -2.53645134 22.33247948
rfoot  -0.04586456344 -23.91512108 -33.78112411
rtoes  3.99450198 19.6130647 -101.7519109
lfemur  -9.265987396 -16.47833824 -21.84733391
ltibia  3.157312155 -2.105157375 15.01498604
lfoot  1.641719699 -21.77205849 38.64113998
ltoes  -8.633038116 -18.11002533 -116.0323789
150
root  34.79238495 36.49711609 -14.84802276 9.573182106 -7.879135609 4.729009151
lowerback  -6.849132538 -1.512101531 -0.8611989617
upperback  -4.089000225 -1.475819945 -4.254740238
thorax  -0.4728629887 -0.5766398311 -4.005869865
lowerneck  1.298490047 -19.60709953 -12.93010044
upperneck  7.600419998 -27.50989914 16.03050041
head  6.11097002 -13.24569988 4.662793636
lclavicle  0 -4.497500157e-015 -2.743230041e-014
lhumerus  -49.75270081 30.09840012 60.02389908
lradius  0.0283036083 -6.507048965e-006 29.88530159
lwrist  4.824992743e-007 -3.790274832e-007 -29.87739944
lhand  -4.419437315e-031 -36.9654007 -10.70269966
lfingers  90 7.125020027 -90
lthumb  94.85264533 -25.53563328 101.1415517
rclavicle  0 -4.497500157e-015 -2.743230041e-014
rhumerus  -14.05650043 -35.79299927 6.45473814
rradius  -5.16745672e-007 2.214343908e-008 38.08919907
rwrist  -0.0001011603963 -0.001600692281 -165.6406097
rhand  -1.773674342e-031 5.48183012 -6.743000031
rfingers  -90 -7.125020027 -90
rthumb  -84.40421718 -9.279186068 -58.71612387
rfemur  -14.73937893 16.06813812 11.34748936
rtibia  -1.885576248 -2.551751375 22.32143974
rfoot  -0.04519697279 -23.91367912 -33.78790665
rtoes  3.993684289 19.61322492 -101.7494749
lfemur  -9.271809578 -16.50121307 -21.86220932
ltibia  3.157103777 -2.109210014 15.01932335
lfoot  1.65337038 -21.77361679 38.67064667
ltoes  -8.638437674 -18.10751767 -116.0497508
151
root  34.79273638 36.49689382 -14.84811588 9.563158035 -7.855599403 4.722920895
lowerback  -6.858233452 -1.509044409 -0.8528987765
upperback  -4.07694006 -1.476089954 -4.266250134
thorax  -0.4559710026 -0.5763010383 -4.023059845
lowerneck  1.270990014 -19.61650085 -12.90540028
upperneck  7.589997768 -27.52061462 16.03850746
head  6.10750246 -13.24774837 4.661265373
lclavicle  0 -4.497500157e-015 -2.743230041e-014
lhumerus  -49.75780106 30.12129974 60.0019989
lradius  0.02605647221 -6.507048965e-006 29.90000153
lwrist  4.824992743e-007 -3.790274832e-007 -29.92690086
lhand  -0 -37.3423996 -10.82909966
lfingers  90 7.125020027 -90
lthumb  95.05768548 -25.64579509 101.5569128
rclavicle  0 -4.497500157e-015 -2.743230041e-014
rhumerus  -14.12969875 -35.76620102 6.488928795
rradius  -5.16745672e-007 2.214343908e-008 38.02339935
rwrist  -0.0001011603963 -0.001600692281 -165.6190033
rhand  -1.773899217e-031 5.55700016 -6.874619961
rfingers  -90 -7.125020027 -90
rthumb  -84.45481231 -9.1713312 -58.65379565
rfemur  -14.71249104 16.07097626 11.35787773
rtibia  -1.88549912 -2.548179865 22.30328369
rfoot  -0.04428539053 -23.92638016 -33.81108093
rtoes  3.990627032 19.61382367 -101.7403671
lfemur  -9.254455566 -16.51618767 -21.85431862
ltibia  3.163635492 -2.091137409 15.0112505
lfoot  1.680129766 -21.80753326 38.72887039
ltoes  -8.618808588 -18.11662437 -115.9866097
152
root  34.79403098 36.49584552 -14.84835617 9.533038139 -7.831968784 4.74813509
lowerback  -6.872970104 -1.507120013 -0.8370805383
upperback  -4.082789898 -1.477220058 -4.253940105
thorax  -0.4540269971 -0.5732970238 -4.019730091
lowerneck  1.286829948 -19.62680054 -12.89719963
upperneck  7.551778316 -27.53025436 16.02098083
head  6.094449997 -13.25710011 4.649677277
lclavicle  0 -4.497500157e-015 -2.743230041e-014
lhumerus  -49.770401 30.12229919 60.00659943
lradius  0.0235166084 -6.507048965e-006 29.90410233
lwrist  4.824992743e-007 -3.790274832e-007 -29.91239929
lhand  -4.444038413e-031 -37.38479996 -10.8295002
lfingers  90 7.125020027 -90
lthumb  95.07773087 -25.64454171 101.6022255
rclavicle  0 -4.497500157e-015 -2.743230041e-014
rhumerus  -14.19639969 -35.73440552 6.533042908
rradius  -5.16745672e-007 2.214343908e-008 37.97719955
rwrist  -0.0001011603963 -0.001600692281 -165.6419983
rhand  -1.773641251e-031 5.470680237 -7.113200188
rfingers  -90 -7.125020027 -90
rthumb  -84.60154391 -8.962046803 -58.75782
rfemur  -14.68349075 16.06987381 11.34208393
rtibia  -1.88599813 -2.531942844 22.31896973
rfoot  -0.05469806865 -23.89510727 -33.85149384
rtoes  3.988671861 19.61420632 -101.7345426
lfemur  -9.155893326 -16.47642326 -21.91603088
ltibia  3.221728802 -2.062977791 14.89954376
lfoot  1.690955162 -21.83008957 38.73915482
ltoes  -8.629093344 -18.11185611 -116.019689
153
root  34.79491707 36.49592662 -14.84867907 9.511216164 -7.793977737 4.736083984
lowerback  -6.842239857 -1.495820045 -0.7998450994
upperback  -4.11262989 -1.461009979 -4.298659801
thorax  -0.5033590198 -0.5646070242 -4.085619926
lowerneck  1.332909942 -19.64279938 -12.87629986
upperneck  7.547110081 -27.55569839 16.03949928
head  6.089210033 -13.26930046 4.644227028
lclavicle  0 -4.497500157e-015 -2.743230041e-014
lhumerus  -49.76300049 30.02079964 59.98289871
lradius  0.02071371302 -6.507048965e-006 29.87680244
lwrist  4.824992743e-007 -3.790274832e-007 -29.92499924
lhand  -0 -37.32419968 -10.84549999
lfingers  90 7.125020027 -90
lthumb  95.05268538 -25.66243413 101.5389446
rclavicle  0 -4.497500157e-015 -2.743230041e-014
rhumerus  -14.37230015 -35.55840302 6.604979515
rradius  -5.16745672e-007 2.214343908e-008 37.95640182
rwrist  -0.0001011603963 -0.001600692281 -165.7440033
rhand  -1.774356042e-031 5.706610203 -6.996210098
rfingers  -90 -7.125020027 -90
rthumb  -84.48185154 -9.077020123 -58.51794421
rfemur  -14.64630508 16.05936241 11.37272644
rtibia  -1.886888623 -2.493740559 22.31344223
rfoot  -0.04376526549 -23.83457184 -33.85360336
rtoes  4.001042536 19.61178188 -101.7713968
lfemur  -9.145449638 -16.52322388 -21.89679909
ltibia  3.206807375 -2.077103853 14.9164629
lfoot  1.667912602 -21.79809189 38.71304321
ltoes  -8.637241411 -18.10807341 -116.0459019
154
root  34.79658412 36.49814035 -14.84949457 9.501344681 -7.780303955 4.732097149
lowerback  -6.838639736 -1.479689837 -0.7911939621
upperback  -4.111830235 -1.438500047 -4.32156992
thorax  -0.5039830208 -0.5531030297 -4.113019943
lowerneck  1.293519974 -19.6697998 -12.87849998
upperneck  7.591440201 -27.59730148 16.05430031
head  6.118070126 -13.28359985 4.645540237
lclavicle  0 -4.497500157e-015 -2.743230041e-014
lhumerus  -49.74829865 29.99539948 59.95610046
lradius  0.01777842641 -6.507048965e-006 29.85169983
lwrist  4.824992743e-007 -3.790274832e-007 -29.9871006
lhand  -0 -37.36460114 -10.84029961
lfingers  90 7.125020027 -90
lthumb  95.07065872 -25.65595662 101.5817448
rclavicle  0 -4.497500157e-015 -2.743230041e-014
rhumerus  -14.52299976 -35.47990417 6.673947811
rradius  -5.16745672e-007 2.214343908e-008 37.92350006
rwrist  -0.0001011603963 -0.001600692281 -165.8930054
rhand  -0 5.781700134 -7.002190113
rfingers  -90 -7.125020027 -90
rthumb  -84.46638851 -9.07669101 -58.44512999
rfemur  -14.64527988 16.08124924 11.38369083
rtibia  -1.88798666 -2.481314182 22.32405472
rfoot  -0.04341274127 -23.81136322 -33.86512756
rtoes  4.000438131 19.61190051 -101.7695961
lfemur  -9.147655487 -16.59012413 -21.89232635
ltibia  3.193030834 -2.099271059 14.93660069
lfoot  1.654611826 -21.75910759 38.72301865
ltoes  -8.603924867 -18.12351224 -115.9387535
